<svg width="70" height="68" viewBox="0 0 70 68" fill="none" xmlns="http://www.w3.org/2000/svg">
<path d="M33.0391 1.3869L8.87654 4.78272C4.06373 5.45912 0.710505 9.909 1.3869 14.7218L4.78273 38.8843C5.45912 43.6972 9.909 47.0504 14.7218 46.374L38.8843 42.9782C43.6972 42.3018 47.0504 37.8519 46.374 33.0391L42.9782 8.87653C42.3018 4.06373 37.8519 0.710503 33.0391 1.3869Z" fill="white" stroke="#00C0F4" stroke-width="2.6"/>
<path d="M21.3523 10.5332L24.2213 14.6976" stroke="#00C0F4" stroke-width="3.55388" stroke-linecap="round"/>
<path d="M12.8533 20.8628L33.6491 17.9402" stroke="#00C0F4" stroke-width="3.55388" stroke-linecap="round"/>
<path d="M26.8102 21.5114C25.0434 28.2848 21.2903 34.4673 15.5511 40.059" stroke="#00C0F4" stroke-width="3.55388" stroke-linecap="round"/>
<path d="M18.5766 25.6048C24.0818 29.1812 30.2719 32.9875 37.1468 37.0239" stroke="#00C0F4" stroke-width="3.55388" stroke-linecap="round"/>
<path d="M36.14 23.5793L60.4809 25.2814C65.0536 25.6013 68.5012 29.5673 68.1816 34.14L66.4795 58.4809C66.1596 63.0536 62.1936 66.5012 57.6209 66.1815L33.28 64.4795C28.7073 64.1596 25.2597 60.1936 25.5793 55.6209L27.2814 31.28L27.3219 30.855C27.8325 26.6362 31.4647 23.4788 35.7135 23.5603L36.14 23.5793Z" fill="white" stroke="#00C0F4"/>
<path d="M34.3766 56.961L47.7596 32.3112L57.5817 58.5837" stroke="#00C0F4" stroke-width="4.0385" stroke-linecap="round" stroke-linejoin="round"/>
<path d="M40.0032 48.2862L53.2172 49.2102" stroke="#00C0F4" stroke-width="4.0385" stroke-linecap="round" stroke-linejoin="round"/>
</svg>
