<svg width="100" height="148" viewBox="0 0 100 148" fill="none" xmlns="http://www.w3.org/2000/svg">
<path d="M77.6817 145.586C79.7887 146.606 82.0985 147.135 84.4391 147.137C88.5652 147.136 92.5223 145.495 95.4403 142.572C98.3583 139.648 99.9981 135.684 100 131.55V58.8939L68.8884 58.895V93.8533L64.1073 89.1394C48.8482 74.0999 33.4741 59.0445 33.3218 58.895C31.8642 57.4477 30.1356 56.304 28.2348 55.5285C26.3343 54.7539 24.2994 54.3633 22.2475 54.3802C20.1957 54.397 18.1673 54.8193 16.2794 55.6247C14.3914 56.4302 12.681 57.6019 11.2469 59.0716C9.8127 60.5423 8.68296 62.2821 7.92276 64.1919C7.16265 66.1018 6.78714 68.1433 6.81769 70.1989C6.84834 72.2545 7.28459 74.284 8.10122 76.1695C8.91795 78.056 10.099 79.7612 11.5763 81.188C32.9228 102.09 67.7588 136.373 72.2662 141.249C73.7228 143.084 75.5738 144.567 77.6817 145.586Z" fill="#00C7F2"/>
<path d="M17.7785 35.625C27.5972 35.625 35.5566 27.6504 35.5566 17.8127C35.5566 7.975 27.5972 0 17.7785 0C7.95967 0 0 7.975 0 17.8127C0 27.6504 7.95967 35.625 17.7785 35.625Z" fill="#00C0F4"/>
</svg>
