<svg width="526" height="148" viewBox="0 0 526 148" fill="none" xmlns="http://www.w3.org/2000/svg">
<path d="M169.992 102V56.88H199.752V63.344H178.248V76.144H198.28V82.608H178.248V102H169.992ZM206.377 102V54.896H214.377V102H206.377ZM238.056 102.64C234.728 102.64 231.848 101.957 229.417 100.592C226.984 99.2267 225.086 97.2853 223.72 94.768C222.398 92.2507 221.736 89.264 221.736 85.808C221.736 82.352 222.398 79.3867 223.72 76.912C225.086 74.3947 226.984 72.4533 229.417 71.088C231.848 69.7227 234.728 69.04 238.056 69.04C241.384 69.04 244.265 69.7227 246.697 71.088C249.171 72.4533 251.07 74.3947 252.393 76.912C253.758 79.3867 254.441 82.352 254.441 85.808C254.441 89.264 253.758 92.2507 252.393 94.768C251.07 97.2853 249.171 99.2267 246.697 100.592C244.265 101.957 241.384 102.64 238.056 102.64ZM238.056 96.496C240.574 96.496 242.579 95.6213 244.073 93.872C245.566 92.08 246.312 89.392 246.312 85.808C246.312 82.224 245.566 79.5573 244.073 77.808C242.579 76.0587 240.574 75.184 238.056 75.184C235.539 75.184 233.534 76.0587 232.04 77.808C230.547 79.5573 229.8 82.224 229.8 85.808C229.8 89.392 230.547 92.08 232.04 93.872C233.534 95.6213 235.539 96.496 238.056 96.496ZM270.074 102L257.466 69.68H265.722L274.81 94.832H273.146L282.362 69.68H288.058L297.21 94.832H295.738L304.763 69.68H312.57L299.962 102H292.922L283.258 76.272H286.65L277.178 102H270.074ZM332.238 102.64C328.91 102.64 325.987 101.957 323.47 100.592C320.995 99.2267 319.075 97.2853 317.71 94.768C316.344 92.208 315.662 89.1787 315.662 85.68C315.662 82.1813 316.344 79.1947 317.71 76.72C319.118 74.2453 321.059 72.3467 323.534 71.024C326.008 69.7013 328.91 69.04 332.238 69.04C334.371 69.04 336.44 69.3813 338.446 70.064C340.494 70.704 342.158 71.6427 343.438 72.88L341.006 78.448C339.854 77.3813 338.552 76.592 337.102 76.08C335.694 75.5253 334.307 75.248 332.942 75.248C330.083 75.248 327.843 76.144 326.222 77.936C324.643 79.728 323.854 82.3307 323.854 85.744C323.854 89.1573 324.643 91.7813 326.222 93.616C327.843 95.4507 330.083 96.368 332.942 96.368C334.264 96.368 335.63 96.112 337.038 95.6C338.488 95.088 339.811 94.2987 341.006 93.232L343.438 98.736C342.115 99.9733 340.43 100.933 338.382 101.616C336.376 102.299 334.328 102.64 332.238 102.64ZM364.007 102.64C360.679 102.64 357.799 101.957 355.367 100.592C352.935 99.2267 351.036 97.2853 349.671 94.768C348.348 92.2507 347.687 89.264 347.687 85.808C347.687 82.352 348.348 79.3867 349.671 76.912C351.036 74.3947 352.935 72.4533 355.367 71.088C357.799 69.7227 360.679 69.04 364.007 69.04C367.335 69.04 370.215 69.7227 372.647 71.088C375.121 72.4533 377.02 74.3947 378.343 76.912C379.708 79.3867 380.391 82.352 380.391 85.808C380.391 89.264 379.708 92.2507 378.343 94.768C377.02 97.2853 375.121 99.2267 372.647 100.592C370.215 101.957 367.335 102.64 364.007 102.64ZM364.007 96.496C366.524 96.496 368.529 95.6213 370.023 93.872C371.516 92.08 372.263 89.392 372.263 85.808C372.263 82.224 371.516 79.5573 370.023 77.808C368.529 76.0587 366.524 75.184 364.007 75.184C361.489 75.184 359.484 76.0587 357.991 77.808C356.497 79.5573 355.751 82.224 355.751 85.808C355.751 89.392 356.497 92.08 357.991 93.872C359.484 95.6213 361.489 96.496 364.007 96.496ZM399.337 102.64C395.369 102.64 392.404 101.552 390.441 99.376C388.479 97.2 387.497 93.872 387.497 89.392V69.68H395.497V89.328C395.497 91.7173 395.988 93.488 396.969 94.64C397.951 95.7493 399.444 96.304 401.449 96.304C403.711 96.304 405.545 95.536 406.953 94C408.404 92.464 409.129 90.4373 409.129 87.92V69.68H417.129V102H409.321V95.408H410.217C409.279 97.712 407.849 99.504 405.929 100.784C404.052 102.021 401.855 102.64 399.337 102.64ZM426.15 102V77.936C426.15 76.5707 426.108 75.184 426.022 73.776C425.98 72.368 425.873 71.0027 425.702 69.68H433.446L434.342 78.512H433.062C433.489 76.3787 434.193 74.608 435.174 73.2C436.198 71.792 437.436 70.7467 438.886 70.064C440.337 69.3813 441.916 69.04 443.622 69.04C444.39 69.04 445.009 69.0827 445.478 69.168C445.948 69.2107 446.417 69.3173 446.886 69.488L446.822 76.528C446.012 76.1867 445.308 75.9733 444.71 75.888C444.156 75.8027 443.452 75.76 442.598 75.76C440.764 75.76 439.206 76.144 437.926 76.912C436.689 77.68 435.75 78.7467 435.11 80.112C434.513 81.4773 434.214 83.0347 434.214 84.784V102H426.15ZM451.74 102V69.68H459.74V102H451.74ZM451.292 63.6V55.792H460.188V63.6H451.292ZM484.443 102.64C479.024 102.64 474.779 101.147 471.707 98.16C468.635 95.1733 467.099 91.0773 467.099 85.872C467.099 82.5013 467.76 79.5573 469.083 77.04C470.406 74.5227 472.24 72.56 474.587 71.152C476.976 69.744 479.75 69.04 482.907 69.04C486.022 69.04 488.624 69.7013 490.715 71.024C492.806 72.3467 494.384 74.2027 495.451 76.592C496.56 78.9813 497.115 81.776 497.115 84.976V87.088H473.563V82.864H491.419L490.331 83.76C490.331 80.7733 489.691 78.4907 488.411 76.912C487.174 75.3333 485.36 74.544 482.971 74.544C480.326 74.544 478.278 75.4827 476.827 77.36C475.419 79.2373 474.715 81.8613 474.715 85.232V86.064C474.715 89.5627 475.568 92.1867 477.275 93.936C479.024 95.6427 481.478 96.496 484.635 96.496C486.47 96.496 488.176 96.2613 489.755 95.792C491.376 95.28 492.912 94.4693 494.363 93.36L496.731 98.736C495.195 99.9733 493.36 100.933 491.227 101.616C489.094 102.299 486.832 102.64 484.443 102.64ZM504.226 102V77.936C504.226 76.5707 504.183 75.184 504.098 73.776C504.055 72.368 503.948 71.0027 503.778 69.68H511.522L512.418 78.512H511.138C511.564 76.3787 512.268 74.608 513.25 73.2C514.274 71.792 515.511 70.7467 516.962 70.064C518.412 69.3813 519.991 69.04 521.698 69.04C522.466 69.04 523.084 69.0827 523.554 69.168C524.023 69.2107 524.492 69.3173 524.962 69.488L524.898 76.528C524.087 76.1867 523.383 75.9733 522.786 75.888C522.231 75.8027 521.527 75.76 520.674 75.76C518.839 75.76 517.282 76.144 516.002 76.912C514.764 77.68 513.826 78.7467 513.186 80.112C512.588 81.4773 512.29 83.0347 512.29 84.784V102H504.226Z" fill="#ffffff"/>
<path d="M77.6817 145.586C79.7887 146.606 82.0985 147.135 84.4391 147.137C88.5652 147.136 92.5223 145.495 95.4403 142.572C98.3583 139.648 99.9981 135.684 100 131.55V58.8939L68.8884 58.895V93.8533L64.1073 89.1394C48.8482 74.0999 33.4741 59.0445 33.3218 58.895C31.8642 57.4477 30.1356 56.304 28.2348 55.5285C26.3343 54.7539 24.2994 54.3633 22.2475 54.3802C20.1957 54.397 18.1673 54.8193 16.2794 55.6247C14.3914 56.4302 12.681 57.6019 11.2469 59.0716C9.8127 60.5423 8.68296 62.2821 7.92276 64.1919C7.16265 66.1018 6.78714 68.1433 6.81769 70.1989C6.84834 72.2545 7.28459 74.284 8.10122 76.1695C8.91795 78.056 10.099 79.7612 11.5763 81.188C32.9228 102.09 67.7588 136.373 72.2662 141.249C73.7228 143.084 75.5738 144.567 77.6817 145.586Z" fill="#ffffff"/>
<path d="M17.7785 35.625C27.5972 35.625 35.5566 27.6504 35.5566 17.8127C35.5566 7.975 27.5972 0 17.7785 0C7.95967 0 0 7.975 0 17.8127C0 27.6504 7.95967 35.625 17.7785 35.625Z" fill="#ffffff"/>
</svg>
